# xmcd
#
# Track frame offsets:
# 150
# 9670
# 19660
# 29100
# 44457
# 58715
# 69950
# 82989
# 95219
# 104765
# 118913
# 128045
#
# Disc length: 1842 seconds
#
#
# Revision: 0
# Processed by: cddbd v1.5.2PL0 Copyright (c) Steve Scherf et al.
# Submitted via: FreeRIP 2.945 
#
DISCID=a807300c
DTITLE=Bill Anderson - Sings
DYEAR=1900
DGENRE=Country
TTITLE0=Easy Come, Easy Go
TTITLE1=Abilene
TTITLE2=I'm Leaving It Up To You
TTITLE3=Green Green Grass Of Home
TTITLE4=Five Little Fingers
TTITLE5=Take Me Home
TTITLE6=8 x10
TTITLE7=500 miles Away From Home
TTITLE8=You Don't Have To Be A Baby To Cry
TTITLE9=Candy Apple Red
TTITLE10=Best Of Strangers
TTITLE11=One Mile Over Two Miles Back
EXTD=
EXTT0=
EXTT1=
EXTT2=
EXTT3=
EXTT4=
EXTT5=
EXTT6=
EXTT7=
EXTT8=
EXTT9=
EXTT10=
EXTT11=
PLAYORDER=
